HIERARCHY
ROOT Hips
{
	OFFSET 0.000000 0.000000 0.000000 
	CHANNELS 6 Xposition Yposition Zposition Yrotation Zrotation Xrotation 
	JOINT Lumbar
	{
		OFFSET 0.000000 0.000000 0.000000 
		CHANNELS 3 Zrotation Xrotation Yrotation
		JOINT Neck
		{
			OFFSET 0.000000 0.445665 0.000000 
			CHANNELS 3 Zrotation Xrotation Yrotation
			End Site
			{
				OFFSET 0.000000 0.227535 0.000000 
			}
		}
		JOINT RightShoulder
		{
			OFFSET 0.019635 0.377685 0.194865 
			CHANNELS 3 Zrotation Xrotation Yrotation
			JOINT RightElbow
			{
				OFFSET 0.000000 -0.243375 0.000000 
				CHANNELS 2 Zrotation Yrotation
				JOINT RightWrist
				{
					OFFSET 0.000000 -0.264825 0.000000 
					CHANNELS 2 Zrotation Xrotation
					End Site
					{
						OFFSET 0.006600 -0.176220 0.000990 
					}
				}
			}
		}
		JOINT LeftShoulder
		{
			OFFSET 0.019635 0.377685 -0.194865 
			CHANNELS 3 Zrotation Xrotation Yrotation
			JOINT LeftElbow
			{
				OFFSET 0.000000 -0.243375 0.000000 
				CHANNELS 2 Zrotation Yrotation
				JOINT LeftWrist
				{
					OFFSET 0.000000 -0.264825 0.000000 
					CHANNELS 2 Zrotation Xrotation
					End Site
					{
						OFFSET 0.006600 -0.176220 -0.000990 
					}
				}
			}
		}
	}
	JOINT RightHip
	{
		OFFSET 0.052140 -0.069960 0.075570 
		CHANNELS 3 Zrotation Xrotation Yrotation
		JOINT RightKnee
		{
			OFFSET 0.000000 -0.402270 0.000000 
			CHANNELS 1 Zrotation
			JOINT RightAnkle
			{
				OFFSET 0.000000 -0.404085 0.000000 
				CHANNELS 3 Zrotation Xrotation Yrotation
				End Site
				{
					OFFSET 0.204105 -0.089430 0.008415 
				}
			}
		}
	}
	JOINT LeftHip
	{
		OFFSET 0.052140 -0.069960 -0.075570 
		CHANNELS 3 Zrotation Xrotation Yrotation
		JOINT LeftKnee
		{
			OFFSET 0.000000 -0.402270 0.000000 
			CHANNELS 1 Zrotation
			JOINT LeftAnkle
			{
				OFFSET 0.000000 -0.404085 0.000000 
				CHANNELS 3 Zrotation Xrotation Yrotation
				End Site
				{
					OFFSET 0.204105 -0.089430 -0.008415 
				}
			}
		}
	}
}
MOTION
Frames: 25
Frame Time: 0.02
0.2563 0.73767 0.02853 180.30323 0 -2.53519 -4.57631 5.1216 2.55464 -24.7406 -3.57281 -0.87465 67.27939 -39.12572 44.74882 129.49352 114.43393 -57.76043 -6.25447 44.29855 28.72472 -45.19711 85.03413 -16.67053 -30.63871 -10.8841 55.88496 -0.48498 -3.29911 -65.52757 10.58906 0.72196 3.1345 55.89208 8.34836 7.73807 -63.19233 8.6566 5.09605 6.39843
0.25619 0.73786 0.02859 180.31695 0 -2.54078 -4.53121 5.04292 2.43061 -23.96173 -3.31938 -0.68987 68.48327 -39.64381 45.22877 129.92342 116.83955 -59.70167 -6.57333 43.51359 28.28361 -45.0332 84.80775 -16.73499 -30.57611 -10.86667 55.85426 -0.49094 -3.30158 -65.49694 10.58999 0.72404 3.13407 55.86825 8.33152 7.72463 -63.16314 8.65229 5.09799 6.40155
0.2561 0.73803 0.02866 180.33927 0 -2.54674 -4.48856 4.97427 2.3042 -23.08841 -3.13078 -0.52666 69.43803 -40.03971 45.59566 130.1378 118.09047 -61.20428 -6.7807 42.66584 27.91087 -44.89659 84.60795 -16.78259 -30.51369 -10.85753 55.8245 -0.49216 -3.29011 -65.46861 10.59189 0.71881 3.12033 55.84587 8.31688 7.72146 -63.13368 8.64767 5.09174 6.38906
0.256 0.73821 0.02873 180.35699 0 -2.55253 -4.44579 4.90206 2.18619 -22.25345 -2.91682 -0.36128 70.47222 -40.47884 45.9895 130.44764 119.89151 -62.85511 -7.03662 41.84407 27.51428 -44.74788 84.40081 -16.83053 -30.46585 -10.84592 55.79482 -0.49436 -3.28362 -65.43954 10.59328 0.71632 3.11182 55.82314 8.30183 7.71411 -63.10478 8.64342 5.08944 6.38394
0.25589 0.73841 0.0288 180.3776 0 -2.55845 -4.3987 4.82555 2.03702 -21.43459 -2.68392 -0.16389 71.65573 -40.96639 46.48005 130.751 121.69902 -64.64388 -7.29684 41.0324 27.08557 -44.59639 84.17306 -16.89741 -30.36469 -10.83335 55.76282 -0.50156 -3.28291 -65.409 10.59495 0.71637 3.10684 55.79902 8.28422 7.70458 -63.07391 8.63822 5.08634 6.37785
0.2558 0.73857 0.02887 180.39428 0 -2.56413 -4.36113 4.76044 1.95177 -20.56205 -2.50677 -0.03765 72.46649 -41.32524 46.74524 131.02221 123.1749 -66.06801 -7.52289 40.18623 26.74099 -44.45873 83.99437 -16.92587 -30.36875 -10.82317 55.73593 -0.49731 -3.26698 -65.38216 10.59627 0.70941 3.09141 55.77815 8.27244 7.70202 -63.04712 8.6349 5.08288 6.37
0.25578 0.73865 0.02894 180.39772 0 -2.56919 -4.35067 4.72392 2.04999 -19.55152 -2.46406 -0.10963 72.3087 -41.36072 46.41029 131.26937 124.01988 -66.63013 -7.68808 39.24585 26.60748 -44.34021 83.94995 -16.84709 -30.69524 -10.81563 55.72307 -0.46125 -3.21075 -65.36486 10.59632 0.68427 3.04921 55.76597 8.27675 7.71691 -63.03169 8.63703 5.08053 6.36099
0.25577 0.73871 0.02902 180.39696 0 -2.57397 -4.34947 4.69863 2.21155 -18.49316 -2.47599 -0.25127 71.78369 -41.27107 45.85453 131.4919 124.55404 -66.84507 -7.82226 38.27569 26.55729 -44.2369 83.95322 -16.73288 -31.12091 -10.80991 55.7153 -0.41407 -3.14003 -65.35126 10.59599 0.65244 2.99716 55.75701 8.28678 7.73834 -63.02038 8.64104 5.07804 6.35075
0.25576 0.73878 0.02909 180.39832 0 -2.57878 -4.34311 4.66848 2.34001 -17.46506 -2.46556 -0.35642 71.42569 -41.23781 45.40404 131.72047 125.21326 -67.20585 -7.96741 37.32822 26.47208 -44.13494 83.93124 -16.63997 -31.47931 -10.80397 55.70513 -0.3728 -3.07699 -65.33609 10.59591 0.62402 2.9503 55.74652 8.29387 7.75637 -63.00719 8.64409 5.07551 6.34113
0.25575 0.73885 0.02917 180.3991 0 -2.584 -4.34084 4.6376 2.48656 -16.39654 -2.44727 -0.4825 71.05764 -41.20209 44.92781 131.96314 125.90408 -67.59989 -8.12201 36.33911 26.37722 -43.99951 83.92498 -16.52425 -31.93123 -10.79587 55.69537 -0.32766 -3.00864 -65.32056 10.59557 0.5937 2.89984 55.73631 8.30247 7.77662 -62.99403 8.64757 5.07315 6.33067
0.25573 0.73892 0.02924 180.39998 0 -2.58832 -4.33222 4.61084 2.61056 -15.40347 -2.45707 -0.58152 70.62775 -41.14357 44.45539 132.17322 126.46808 -67.84867 -8.25072 35.43148 26.32134 -43.93647 83.89732 -16.44797 -32.21227 -10.79252 55.68596 -0.28812 -2.94832 -65.30662 10.59564 0.56597 2.8549 55.7263 8.30925 7.79361 -62.98181 8.65061 5.07051 6.3219
0.25568 0.73899 0.02928 180.4022 0 -2.59004 -4.30383 4.59218 2.65612 -14.61976 -2.53435 -0.58653 70.1075 -41.05175 44.03849 132.30301 126.77365 -67.78221 -8.31897 34.74832 26.35233 -44.07441 83.7956 -16.48893 -31.99427 -10.80201 55.67626 -0.26579 -2.91186 -65.29634 10.59719 0.54606 2.82608 55.71577 8.30951 7.80028 -62.97102 8.65206 5.06696 6.31811
0.25563 0.73906 0.02931 180.40463 0 -2.5909 -4.2687 4.57734 2.6769 -13.91641 -2.63702 -0.56221 69.54083 -40.94211 43.63543 132.4012 126.9646 -67.5837 -8.36219 34.15025 26.41925 -44.28355 83.67118 -16.57083 -31.60189 -10.81611 55.66674 -0.24971 -2.88441 -65.28751 10.59912 0.52921 2.80349 55.70538 8.30772 7.80332 -62.96107 8.653 5.06321 6.31617
0.25558 0.73913 0.02934 180.40688 0 -2.5923 -4.23665 4.56105 2.70955 -13.18336 -2.72568 -0.55268 69.00266 -40.84185 43.23238 132.51271 127.20346 -67.44763 -8.41519 33.51828 26.46977 -44.45692 83.55916 -16.63452 -31.29063 -10.82795 55.65712 -0.23145 -2.85414 -65.27789 10.60072 0.51164 2.7791 55.69509 8.30692 7.8078 -62.95085 8.65415 5.05971 6.31348
0.25553 0.7392 0.02937 180.40924 0 -2.59308 -4.20489 4.54394 2.74201 -12.41853 -2.82702 -0.53943 68.41969 -40.73168 42.79446 132.62801 127.44937 -67.28933 -8.47373 32.86392 26.52409 -44.6456 83.43999 -16.69592 -30.97294 -10.84059 55.64774 -0.20998 -2.81795 -65.26893 10.60298 0.49102 2.75003 55.68418 8.30612 7.81347 -62.94033 8.65549 5.05553 6.31034
0.25548 0.73927 0.0294 180.41157 0 -2.59493 -4.17077 4.5293 2.76794 -11.74121 -2.90689 -0.52606 67.92454 -40.63966 42.43594 132.72776 127.65639 -67.15001 -8.51526 32.27827 26.57725 -44.81862 83.32973 -16.77148 -30.62844 -10.85259 55.63789 -0.19687 -2.79643 -65.25894 10.60396 0.47754 2.73227 55.67459 8.30468 7.81565 -62.93057 8.65623 5.05271 6.30861
0.25545 0.73934 0.02943 180.41304 0 -2.59996 -4.13192 4.52038 2.78333 -11.27328 -2.92388 -0.5191 67.67923 -40.6019 42.28954 132.79622 127.79717 -67.10216 -8.51559 31.85003 26.62371 -44.93499 83.24872 -16.88328 -30.23018 -10.86205 55.62631 -0.20498 -2.81334 -65.24524 10.60117 0.48337 2.74477 55.66827 8.30266 7.80949 -62.92271 8.65591 5.05378 6.31001
0.25542 0.7394 0.02945 180.41458 0 -2.60608 -4.09083 4.51376 2.79238 -10.89375 -2.91758 -0.51273 67.52638 -40.58366 42.22437 132.84895 127.90204 -67.07835 -8.49985 31.49078 26.66626 -45.03231 83.17726 -17.00685 -29.8144 -10.87061 55.61433 -0.22137 -2.84473 -65.23053 10.59707 0.49623 2.76839 55.66333 8.29995 7.79986 -62.91558 8.65492 5.05621 6.3128
0.25539 0.73946 0.02947 180.41663 0 -2.61167 -4.05062 4.50615 2.8031 -10.4816 -2.92 -0.50607 67.33595 -40.55732 42.12562 132.90719 128.01639 -67.04115 -8.4919 31.10701 26.70683 -45.13563 83.10191 -17.1204 -29.4211 -10.87934 55.60275 -0.23429 -2.86955 -65.2166 10.59368 0.50568 2.78662 55.65798 8.29706 7.79148 -62.90808 8.65388 5.05797 6.31517
0.25536 0.73953 0.02949 180.41656 0 -2.61741 -4.01082 4.49849 2.81825 -10.03826 -2.93139 -0.49867 67.1256 -40.52718 42.01321 132.97362 128.15522 -67.01024 -8.48113 30.69536 26.76496 -45.25265 83.02435 -17.25474 -28.96142 -10.88925 55.59017 -0.24634 -2.89481 -65.20137 10.5899 0.51616 2.8065 55.6517 8.29607 7.78426 -62.90071 8.65425 5.05995 6.31678
0.25534 0.73958 0.02951 180.42073 0 -2.62307 -3.96964 4.49137 2.82282 -9.68245 -2.91799 -0.49315 66.97853 -40.50963 41.94826 133.01666 128.23628 -66.9728 -8.47259 30.35953 26.78461 -45.33567 82.95335 -17.34849 -28.63695 -10.89641 55.57968 -0.26187 -2.92225 -65.18862 10.58653 0.52609 2.82547 55.64773 8.29115 7.77397 -62.89331 8.65161 5.06178 6.32021
0.25537 0.7396 0.02953 180.43819 0 -2.62841 -3.92602 4.48573 2.80115 -9.52518 -2.84363 -0.49442 66.99114 -40.52381 41.99652 133.02323 128.16398 -66.9193 -8.47543 30.1959 26.70298 -45.32932 82.90351 -17.32317 -28.70081 -10.89622 55.57406 -0.28694 -2.95396 -65.18264 10.58531 0.53311 2.83963 55.64928 8.27395 7.75494 -62.88496 8.64017 5.06293 6.32891
0.25541 0.73961 0.02955 180.45962 0 -2.63359 -3.88093 4.48047 2.769 -9.45733 -2.74472 -0.49747 67.06288 -40.5495 42.08959 133.00127 128.03457 -66.85699 -8.48071 30.11034 26.5819 -45.28911 82.8591 -17.25716 -28.90018 -10.89325 55.57076 -0.31485 -2.987 -65.17927 10.58441 0.53927 2.85239 55.65321 8.25311 7.73315 -62.8767 8.62584 5.06386 6.33929
0.25545 0.73962 0.02957 180.47819 0 -2.63875 -3.83607 4.47461 2.74072 -9.36127 -2.65568 -0.49857 67.10314 -40.56923 42.16046 132.97809 127.93536 -66.79509 -8.48446 30.00092 26.47593 -45.2641 82.80873 -17.21223 -29.03147 -10.89149 55.56701 -0.34013 -3.01816 -65.1749 10.58287 0.54562 2.86548 55.65633 8.23499 7.71335 -62.86881 8.6133 5.06486 6.34849
0.25548 0.73964 0.0296 180.50123 0 -2.64435 -3.79316 4.47048 2.7156 -9.21272 -2.57103 -0.50407 67.16698 -40.59382 42.24089 133.01898 127.82233 -66.75175 -8.49042 29.84169 26.38139 -45.23915 82.77323 -17.15674 -29.18975 -10.88994 55.56058 -0.37126 -3.05511 -65.16963 10.58337 0.55306 2.88022 55.65829 8.21237 7.69033 -62.85908 8.59877 5.06605 6.35945
